<?xml version="1.0" encoding="utf-8"?>
<!-- Generator: Adobe Illustrator 19.0.0, SVG Export Plug-In . SVG Version: 6.00 Build 0)  -->
<svg version="1.1" id="Calque_1" xmlns="http://www.w3.org/2000/svg" xmlns:xlink="http://www.w3.org/1999/xlink" x="0px" y="0px"
	 viewBox="93 170 798 454" style="enable-background:new 93 170 798 454;" xml:space="preserve">
<style type="text/css">
	.st0{opacity:0.2;}
</style>
<g>
	<g id="_x23_3cb54eff" class="st0">
		<path d="M225.4,325c15,2.4,29.1,10.7,38,23c1.8,2.4,3.6,5.2,4.9,8.1c-5.8,4-11.6,7.8-17.2,11.9c-0.9,0.7-1.6,1.1-2.7,1.6
			c-2.7-6.7-7.4-12.8-13.4-16.8c-4.5-2.9-9.6-4.9-14.8-6C221.8,339.5,223.6,332.4,225.4,325L225.4,325z M171.2,331.5
			c6.9-2.2,15,1.4,17.9,7.8c2.4,4.9,1.8,11.4-1.6,15.7c-4.3,5.4-12.3,7.4-18.3,4.3c-4-2-7.2-5.8-8.1-10.3c-0.7-3.3-0.5-6.9,1.4-10
			C164.3,335.3,167.7,332.8,171.2,331.5z M140.4,407.7c8.3-0.2,16.3,0,24.6,0c1.6,9,5.4,17.4,11.4,24.2c4.7,5.4,10.7,9.2,17.2,11.6
			c9,3.3,18.8,3.8,28.2,1.6c8.5-2,16.1-6.7,21.7-13.6c3.8-4.7,6.7-10,8.3-15.9c7.4,2,14.3,4.7,21.7,6.9c-0.2,2.2-1.1,4.5-2,6.7
			c-4.9,12.8-14.1,23.7-25.9,30.6c-7.6,4.5-16.3,7.4-25,8.5c-17.2,2.2-35.3-1.4-49.9-11c-7.8-5.2-14.8-12.1-19.7-20.1
			C145.1,428.8,141.7,418.4,140.4,407.7z"/>
	</g>
	<path class="st0" d="M293.1,387.6c10.5-17,33.8-24.8,52.3-17c5.8,2.2,9.8,6.9,13.2,12.1c-0.2-4-0.2-8.1-0.2-12.3h22.4
		c0.5,32-0.9,63.9,0.9,95.9h-21.9c-0.2-4.5-0.5-8.7-0.7-13.2c-11.4,20.4-41.1,19.7-57.2,5.8C281.9,441.5,279.2,409.3,293.1,387.6
		 M327.1,388c-20.6,5.2-24.2,32.9-14.8,49c7.2,13.2,27.3,15.9,37.6,4.9c10.3-10.7,11.2-28.2,5.2-41.4
		C350.3,390.3,337.8,385.4,327.1,388z M494.9,377.3c16.3-13.4,41.6-13.2,58.4-0.5c14.1,11.2,17.9,30.4,16.6,47.4
		c-23.5,0.2-47.2,0-70.6,0c1.1,9.4,6.2,19,15.4,22.6c13.2,6.5,30.6,0.2,35.3-14.1c6.5,2,12.8,4,19.2,5.8c-3.6,9.8-10,19-19.5,24.2
		c-18.3,10.5-43.8,7.4-58.8-7.8C470.4,434.3,471.9,395.6,494.9,377.3 M505.4,394.5c-3.3,3.6-4.5,8.5-5.8,13c15.9,0,32,0.5,47.8-0.5
		c-1.6-5.8-3.3-12.1-8.5-15.9C529.4,384,513.5,384.9,505.4,394.5L505.4,394.5z M604.1,376.4c15.4-11.9,38-11.9,54.3-1.8
		c16.1,10.5,21.5,31.5,19.2,49.6c-23.5-0.2-47,0-70.4,0c1.1,5.6,2.4,11.4,6.2,15.7c8.5,10.5,25.5,12.5,36.2,4.5
		c4-2.9,5.8-7.8,8.7-11.4c6.2,1.6,12.5,3.8,18.8,5.8c-3.6,10-10.3,19.2-19.9,24.4c-18.1,9.8-42.7,7.2-57.5-7.4
		C577.9,435,579.7,394.5,604.1,376.4 M613,394.8c-3.1,3.6-4.3,8.3-5.6,12.8H655c-1.1-5.6-2.7-11.6-7.4-15.7
		C638,383.8,621.3,384.5,613,394.8z M721.4,382c12.8-19.7,46.5-19.5,57.2,2c10.3-17.7,36-21.7,52.1-9.8c8.7,6.7,12.8,17.9,12.8,28.6
		c0.2,21,0,42,0,63h-22.1v-56.5c0-5.8-0.9-12.1-4.9-16.3c-8.5-8.5-24.8-6.2-30.4,4.5c-2.9,4.9-2.9,11-2.9,16.3v52.1h-22.4
		c-0.2-20.4,0.2-40.7-0.2-60.8c0-9-7.4-17.2-16.6-17c-10.7-1.6-20.8,7.2-21.5,17.7c-0.7,20.1,0,40.2-0.2,60.1h-22.6v-95.9h21.9
		C721.6,374.2,721.6,378.2,721.4,382L721.4,382z M409.8,370.2h22.4c0,4.9-0.2,10-0.2,15c6.2-12.5,20.8-17.7,34-15.9v23.5
		c-7.8-0.2-16.6-1.1-23.3,3.8c-7.2,4.7-9.6,13.8-9.8,21.9c-0.2,15.9,0,31.8-0.2,47.6h-22.8L409.8,370.2L409.8,370.2z"/>
</g>
</svg>
