<?xml version="1.0" encoding="utf-8"?>
<!-- Generator: Adobe Illustrator 19.0.0, SVG Export Plug-In . SVG Version: 6.00 Build 0)  -->
<svg version="1.1" id="Layer_1" xmlns="http://www.w3.org/2000/svg" xmlns:xlink="http://www.w3.org/1999/xlink" x="0px" y="0px"
	 viewBox="59 67 730 660" style="enable-background:new 59 67 730 660;" xml:space="preserve">
<style type="text/css">
	.st0{fill:#FF3F62;}
</style>
<path class="st0" d="M788.8,297.9C781.2,121.5,641.5,69,561.1,69s-137.3,43.4-137.3,43.4C398.5,94.3,345.4,67,289.9,67
	c-88.5,0-180.8,57.1-216.2,151.3s-7.2,203.6,89,314.4C258.8,643.5,424.3,727,424.3,727C593.6,648.4,796,463.9,788.8,297.9z
	 M424.6,216.3c0,0,80.9,98.4,80.9,144.4c0,52.7-57.5,76.8-74.5,76.8s-44.1-3.2-68.7-27.6s-24.1-65.9,2.2-110.1
	C390.7,255.6,424.6,216.3,424.6,216.3z M657.3,449.7c-76.5,115.2-233,193.3-233,193.3c-174.6-85.9-293.7-236.7-293.7-342.7
	s92.8-159.6,154.5-159.6s93.3,29.8,93.3,29.8s-99.5,109.8-99.5,188.9s67.9,143.5,146.9,143.5c78.9,0,143.5-73.2,143.5-146.9
	s-99-185-99-185c14.8-10.7,38.7-28.8,91.8-28.8c114.3,0,153.6,104,153.6,155.7C715.6,349.6,695.5,392.6,657.3,449.7z"/>
</svg>
